<?xml version="1.0" standalone="no"?>
<!DOCTYPE svg PUBLIC "-//W3C//DTD SVG 20010904//EN"
 "http://www.w3.org/TR/2001/REC-SVG-20010904/DTD/svg10.dtd">
<svg version="1.0" xmlns="http://www.w3.org/2000/svg"
 width="300.000000pt" height="272.000000pt" viewBox="0 0 300.000000 272.000000"
 preserveAspectRatio="xMidYMid meet">
<metadata>
Created by potrace 1.10, written by Peter Selinger 2001-2011
</metadata>
<g transform="translate(0.000000,272.000000) scale(0.100000,-0.100000)"
fill="#000000" stroke="none">
<path d="M1280 2520 c-116 -19 -259 -85 -350 -162 -20 -16 -130 -147 -130
-153 0 -3 11 -4 25 -3 14 1 25 6 25 9 0 20 84 34 200 33 113 0 131 -3 190 -27
85 -36 133 -69 200 -136 63 -64 118 -152 145 -231 38 -114 44 -136 50 -183 11
-85 42 -135 102 -166 12 -6 72 -11 141 -11 199 0 347 50 455 156 54 52 117
158 117 196 0 10 3 18 8 18 4 0 7 45 7 99 0 55 -3 97 -7 94 -5 -2 -8 7 -8 21
0 62 -71 189 -148 263 -78 76 -152 119 -273 159 -83 27 -87 27 -389 30 -168 1
-330 -2 -360 -6z m695 -39 c173 -42 290 -118 374 -241 72 -105 101 -229 82
-348 -29 -181 -156 -305 -366 -357 -85 -21 -264 -25 -316 -7 -47 17 -73 64
-93 173 -49 261 -218 479 -421 543 -33 10 -70 23 -83 27 -33 13 -183 11 -221
-2 -44 -15 -49 -6 -18 35 32 42 142 115 217 144 116 46 160 50 470 51 259 1
305 -2 375 -18z"/>
<path d="M2532 2204 c56 -116 73 -209 58 -316 -32 -221 -180 -392 -413 -476
-45 -16 -114 -35 -154 -41 -92 -14 -113 -22 -151 -60 -39 -39 -46 -85 -39
-235 15 -331 198 -536 478 -536 272 0 505 224 549 528 8 51 10 184 8 383 -4
283 -6 309 -27 374 -45 137 -128 255 -235 334 -63 46 -80 56 -74 45z m140
-146 c77 -83 138 -213 158 -338 18 -117 9 -638 -14 -710 -9 -30 -18 -60 -19
-66 -13 -54 -79 -157 -142 -220 -110 -113 -233 -162 -380 -151 -111 7 -179 38
-255 116 -116 118 -160 246 -157 451 2 91 5 109 24 136 26 37 45 45 176 73
130 28 192 53 280 110 152 100 245 233 272 391 9 53 9 191 0 220 -10 32 22 25
57 -12z"/>
<path d="M922 2110 c-24 -5 -79 -28 -124 -52 -107 -57 -193 -147 -247 -260
-54 -113 -70 -186 -76 -363 -3 -82 -8 -172 -10 -199 -6 -62 9 -50 27 24 l14
55 240 0 239 0 21 -63 c12 -35 24 -63 28 -63 3 1 32 14 64 29 74 38 159 65
177 58 8 -3 15 -2 15 3 0 4 23 11 51 14 148 18 195 103 171 317 -27 242 -114
389 -277 469 -63 31 -79 35 -170 37 -55 2 -119 -1 -143 -6z m265 -42 c58 -21
136 -76 175 -123 37 -44 85 -141 104 -210 16 -60 28 -257 18 -306 -12 -58 -77
-101 -171 -114 -68 -9 -205 -53 -256 -82 -4 -2 -17 16 -28 41 -33 76 -33 76
-296 76 l-233 0 0 83 c0 289 122 510 336 612 116 55 242 63 351 23z"/>
<path d="M550 1246 c0 -16 -330 -1029 -357 -1093 -4 -10 28 -13 140 -13 l145
0 11 48 c6 26 19 74 29 107 l18 60 212 3 c244 3 216 17 253 -126 l24 -93 140
3 c119 3 139 5 136 18 -2 8 -52 159 -111 335 -59 176 -139 420 -179 543 l-73
222 -194 0 c-159 0 -194 -3 -194 -14z m340 -15 c30 -1 33 -7 156 -386 48 -148
116 -355 151 -460 34 -104 61 -196 58 -202 -3 -9 -33 -13 -104 -13 l-99 0 -15
38 c-8 20 -20 61 -27 90 -21 89 -28 92 -262 92 -197 0 -199 0 -223 -24 -13
-13 -27 -37 -30 -53 -4 -15 -14 -53 -24 -83 l-17 -55 -107 -3 c-82 -2 -107 0
-107 10 0 13 114 369 264 823 l73 220 84 5 c75 4 158 5 229 1z"/>
<path d="M715 1058 c-2 -7 -6 -24 -8 -38 -3 -14 -27 -113 -55 -220 -27 -107
-47 -199 -45 -203 12 -20 33 39 71 193 47 188 63 280 50 280 -5 0 -10 -6 -13
-12z"/>
<path d="M769 1064 c-4 -36 69 -352 97 -419 8 -19 14 -39 14 -45 0 -6 -46 -10
-125 -10 -69 0 -125 -4 -125 -9 0 -12 59 -18 153 -16 63 2 82 6 98 22 20 19
20 20 -16 159 -20 76 -47 178 -59 226 -20 80 -34 115 -37 92z"/>
<path d="M1364 1170 c-82 -7 -227 -54 -272 -88 l-23 -18 149 -453 c109 -333
154 -456 168 -465 28 -16 545 -21 659 -6 144 20 282 80 374 165 46 42 121 137
121 154 0 5 -17 1 -37 -9 -44 -20 -149 -40 -215 -40 -62 0 -189 34 -251 67
-29 15 -86 61 -127 103 -103 102 -172 242 -195 395 -19 128 -59 180 -151 195
-64 11 -78 11 -200 0z m250 -53 c34 -23 52 -64 72 -167 37 -198 144 -375 281
-466 127 -84 217 -109 373 -102 106 5 111 -2 44 -61 -88 -77 -192 -122 -334
-144 -118 -18 -606 -16 -636 3 -16 10 -53 108 -158 424 -75 226 -136 421 -136
434 0 28 73 65 171 86 95 21 287 16 323 -7z"/>
<path d="M331 789 c-12 -35 -17 -59 -12 -54 11 12 42 107 37 112 -2 2 -13 -24
-25 -58z"/>
<path d="M745 303 c112 -3 161 -7 167 -16 5 -8 8 -7 8 6 0 16 -14 17 -167 15
l-168 -2 160 -3z"/>
<path d="M123 120 l2 -35 185 -3 c191 -3 230 0 230 19 0 8 -4 8 -14 0 -9 -8
-72 -11 -202 -9 l-189 3 -7 30 c-6 29 -6 29 -5 -5z"/>
<path d="M1175 90 l-200 -6 197 -2 c123 -1 199 2 203 8 3 6 5 9 3 8 -2 -1 -93
-5 -203 -8z"/>
</g>
</svg>
